/* XPM */
static char *Icon16[]={
"16 16 51 1",
". c None",
"o c #101818",
"j c #182020",
"J c #202429",
"N c #202c31",
"M c #292c31",
"H c #293031",
"k c #293c39",
"i c #314441",
"D c #393c41",
"O c #394041",
"p c #41484a",
"C c #4a5052",
"V c #4a555a",
"F c #5a696a",
"n c #62757b",
"u c #6a6d6a",
"t c #6a797b",
"G c #7b7d83",
"I c #7b8d8b",
"h c #7bbabd",
"z c #838583",
"r c #839594",
"S c #83aaac",
"l c #83c2c5",
"P c #83ced5",
"w c #8b8d94",
"U c #94c2c5",
"W c #94c6cd",
"g c #94ced5",
"d c #94dee6",
"m c #94eef6",
"K c #94f6ff",
"q c #9c9da4",
"f c #9ccacd",
"e c #9cced5",
"s c #9ceef6",
"a c #9cfaff",
"L c #a4dee6",
"y c #acaeac",
"T c #acdee6",
"b c #acfaff",
"# c #acffff",
"Q c #b4eaee",
"R c #b4eeee",
"E c #bdbebd",
"c c #bdfaff",
"A c #c5c6c5",
"x c #e6e2e6",
"B c #f6f2f6",
"v c #ffffff",
"......#aa#......",
"....bbccccbb....",
"..bdeeeffeegdb..",
".bhijjjjjjjjklb.",
".mnopqqqqqqporm.",
"astouvvvvvvuorsa",
"#stouvvvvvvuows#",
"astouxyzwABuowsa",
"astouvACDEvuowsa",
"#stoFBxGHqBFows#",
"asIojHHJoJHjorsa",
".KLtppppMoNOFPK.",
".babQRRRSktTRab.",
"..#abcccUVVW#b..",
"....abbbQe#L#...",
"......#aa##....."};
