/* XPM */
static char *Icon32[]={
"32 32 50 1",
". c None",
"v c #081418",
"U c #101818",
"w c #101c18",
"x c #182020",
"q c #182420",
"T c #202829",
"p c #202c29",
"y c #313029",
"o c #313839",
"r c #394041",
"R c #4a5052",
"N c #525d5a",
"B c #6a6d6a",
"G c #6a7173",
"I c #73716a",
"u c #7b8183",
"n c #838583",
"# c #8beeff",
"a c #8bf6ff",
"Q c #949594",
"s c #949d9c",
"b c #94faff",
"c c #9cffff",
"C c #a4a5a4",
"V c #a4aaac",
"O c #acaeac",
"d c #acffff",
"E c #b4b2b4",
"L c #b4babd",
"e c #b4ffff",
"z c #bdbebd",
"K c #bdc2c5",
"f c #bdffff",
"P c #cdcecd",
"F c #cddade",
"g c #cdffff",
"m c #d5d2d5",
"A c #d5e2e6",
"t c #d5eaee",
"h c #d5ffff",
"H c #dee2e6",
"l c #defaff",
"i c #deffff",
"M c #e6e2e6",
"S c #e6e6e6",
"J c #eeeeee",
"j c #eeffff",
"D c #f6f6f6",
"k c #ffffff",
".............#######............",
"..........##aaaaaaaaa##.........",
"........##abbccccccbbbba#.......",
".......#abbccccccccccccbba......",
".....#abcccddeeeeeeeedcccbaa....",
".....abcccdeffffgffffeddccba....",
"....abccdeffghiiiiihhgffddccb...",
"...abccdefghiijjjjjjiihffeccba..",
"...bccdffgijjjkkkkkkkjiigfeccb..",
"..abcdefgijkkkkkkkkkkkjihgfdccb.",
"..bccdfglmnoppppqppppprsthfedcb.",
"..bcdefhtuvvwxwxxxxxxvvyzihfecc.",
".bbcefgiABvpCDDDDDDDDBwqElhfedcb",
".bccefhiFBvpCkkkkkkkkGwqEDigfdcb",
".bccefijHBvpCkkkkkkkkGwxEDigfdcc",
".bcdfgijHIvpCJKEEELMkIwqEDihfecb",
".bcdegijHBvpCDmNvxODkGwxEDihfecc",
".bccfgijHIvpCkDPpwQDkIxqEDjhfdcc",
".accefhjHBvquKKEovREKNwxEDigfdcb",
".bbcefhiSnvvxTTqUvUqqUvqEDigfdcb",
"..bcdffijHuroooooqvvpyruHihfeccb",
"..bcdefhijDFmFFFFCqqCPMDjigfecc.",
"..bbcdfghijkkkDkkSRwIHjjigfeccb.",
"...bccefgiijkkkkDKGNBVHihffdcc..",
"...abccdfghijjkkkkkjjiigfedccb..",
"....bbcdeffghiijjjiiihgfedccb...",
".....abccdeffggghhhgfffedccb....",
".....aabccddeffffffffedcccbb....",
".......abbccccddddddccccbb......",
"........abbbccccccccccbba.......",
"..........aabbbbbbbbbaa.........",
".............aaaaaaab..........."};
