/* XPM */
static char *Icon48[]={
"48 48 52 1",
". c None",
"A c #081418",
"z c #101818",
"C c #181c20",
"D c #182020",
"u c #202829",
"v c #292c31",
"O c #313439",
"t c #313829",
"s c #313839",
"r c #393c39",
"Q c #41444a",
"T c #4a4c4a",
"w c #525552",
"y c #52555a",
"R c #5a6162",
"q c #62656a",
"N c #73716a",
"P c #7b797b",
"V c #7b8183",
"L c #8b9194",
"# c #8beeff",
"a c #8bf2ff",
"b c #8bf6ff",
"W c #94959c",
"x c #94999c",
"c c #94faff",
"F c #9c9d9c",
"d c #9cffff",
"B c #a4aaac",
"p c #a4aeac",
"J c #acaaac",
"e c #acffff",
"f c #b4ffff",
"G c #bdbebd",
"g c #bdffff",
"K c #c5c6c5",
"h c #c5ffff",
"I c #cdced5",
"i c #cdffff",
"X c #d5dade",
"E c #dedede",
"U c #deeaee",
"j c #deffff",
"M c #e6e2e6",
"k c #e6ffff",
"S c #eeeaee",
"o c #eef6f6",
"l c #eeffff",
"H c #f6f2f6",
"m c #f6ffff",
"n c #ffffff",
"...................###########..................",
"................##aaabbbbbbbbaaa#...............",
"..............#aaabcccccccccccbbbaa.............",
"............#aabcccdddddddddddcdccbaa...........",
"...........aacccddddddddddddddddddccba..........",
".........#abccddddddeeeeeeeeeeedddddccba........",
"........aabcdddddeefffffgggfffeeeedddccba.......",
".......aaccddddeffggggghhhhhhggffeeedddcca......",
"......#accdddefffgghiiiiiiiiiihgggfeedddccb.....",
"......bcddddeffghiiiiijjjjjjiiiihhggfeddddc.....",
".....accdddefgghiijjkklllllllkjiiihggfedddcc....",
"....abcdddefghiiikklmmnnnnnnmmlkjjiihgfedddcc...",
"....bcddeefghiijklmnnnnnnnnnnnnmlkjiihgfedddc...",
"...accddefghiijlmnnnnnnnnnnnnnnnnmkjiihgfeddcc..",
"...bcddefghiijlmnnnnnnnnnnnnnnnnnnmljiihgfeddc..",
"..bcdddefgiijlopqrssssstuvssssssrwxoljihgfedddc.",
"..bcddefghijloyzAzAAAAzAzAAAAzzAAzzqlkjihgfeddc.",
"..cdddefhiiklBCAAzDuuuuuuuuuuuuDzAACEljiigfeddd.",
"..cdddfghijlmFzzAuGHHHHHHHHHHHHIuAACEmljihgfedd.",
".bcddefgiikmnJCAAuKnnnnnnnnnnnnIuzzDEnljihgfeddc",
".ccddefhiikmnJCAAuKnnnnnnnnnnnnIuAzCEnmkiihfeddc",
".bdddeghijlmnJzzzuKnnnnnnnnnnnnIuAADEnmljihgfddd",
".cddefghijlnnJCAzuKnnnnnnnnnnnnIuAzCEnnljihffddd",
".cddefghijlnnJCAAuKHIFLLLLLxGHnIuAzDEnnljihgeedd",
".cdddfghikmnnJCzzuKnnKyCzzrBnnnIuAzCEnnljihgfddd",
".cddefghijlnnJCAAuKnnnMNzArJnnnIuAADEnnljihgeedd",
".cdddfghijlnnJCzzuKnnnnBOACPnnnIuAzCEnnljihgeddd",
".cdddffhijlnnBCAAuKnnnnGQAARSnnIuAADEnnkjihfeddc",
".ccddefhijkmnJCAzzryyyTQuzAuQyyQzAzCEnmkiihfeddc",
"..cddefghiklnUvzAzzAAAAAAAAAAAAAAAADEnlkihgfedd.",
"..cddefghijlmnKvzAAAAzAAAzzzAAAzAAzNnmkjihfeddd.",
"..bdddefgiikmnnSFVVLLWLWLquAzuqNVBXnnljiigfeddd.",
"..bcddefghijkmnnnnnnnnnnnHFCzrInnnnnmkjihgfeddc.",
"...ccddefghijkmnnnnnnnnnnnIyzuVnnnnmkjihgfeddd..",
"...ccddefghiijlmnnnnnnnnnnGTAzvFmnmkjiihfedddc..",
"....cdddefghiijklnnnnnnnnIxVVVVVBUkjiihgfeddd...",
"....bcdddefghiijklmnnnnnnnnnnnnmlkjihhgfedddc...",
".....bcdddefghiiijklmmnnnnnnmllkjiiihgfedddc....",
"......ccddeeffghiiijjkllllklkkjiiihgffedddc.....",
"......bcddddeffghhiiiiijjjjiiiiihggffeddddc.....",
".......bccdddeeffghhhiiiiiiihhhggffeedddcc......",
"........accddddeefffggghhhghggffeeeddddcc.......",
".........abccddddeeeefffffffffeedddddccb........",
"...........accddddddeeeeeeeeedddddddcc..........",
"............abccdddddddddddddddddcccb...........",
"..............abccccdddddddddddcccb.............",
"................#bbcccccccccccbaa...............",
"...................#aaaaaaaaaa.................."};
